<svg width="601" height="593" viewBox="0 0 601 593" fill="none" xmlns="http://www.w3.org/2000/svg">
<g clip-path="url(#clip0_201_38)">
<path d="M274.05 9.68999L214.09 61.9H300.08V-6.56783e-06C290.8 -0.0300066 281.51 3.19999 274.05 9.68999Z" fill="#FDF0BC"/>
<path d="M325.78 9.63C318.4 3.24 309.25 0.03 300.09 0V61.9H386.08L325.78 9.63Z" fill="url(#paint0_linear_201_38)"/>
<path d="M90.91 95.29L78.54 173.83L144.41 118.56L104.62 71.14C97.49 77.08 92.45 85.53 90.91 95.29Z" fill="#FDF0BC"/>
<path d="M130.5 62C120.74 61.84 111.66 65.27 104.63 71.14L144.42 118.56L210.29 63.29L130.5 62Z" fill="url(#paint1_linear_201_38)"/>
<path d="M5.65001 278.59L46.65 346.71L61.58 262.03L0.63001 251.27C-1.01999 260.41 0.55001 270.12 5.65001 278.59Z" fill="#FDF0BC"/>
<path d="M14.57 227.64C7 233.8 2.25 242.26 0.630005 251.27L61.59 262.02L76.52 177.34L14.57 227.64Z" fill="url(#paint2_linear_201_38)"/>
<path d="M58.15 473.81L133.35 499.63L90.36 425.16L36.75 456.11C41.36 464.17 48.8 470.6 58.15 473.81Z" fill="url(#paint3_linear_201_38)"/>
<path d="M32.24 429.05C30.39 438.63 32.19 448.17 36.74 456.12L90.35 425.17L47.36 350.7L32.24 429.05Z" fill="url(#paint4_linear_201_38)"/>
<path d="M223.85 589.61L298.05 561.06L217.25 531.65L196.08 589.82C204.79 593.02 214.63 593.16 223.85 589.61Z" fill="url(#paint5_linear_201_38)"/>
<path d="M175.23 571.97C179.97 580.5 187.48 586.65 196.08 589.81L217.25 531.64L136.45 502.23L175.23 571.97Z" fill="url(#paint6_linear_201_38)"/>
<path d="M425.23 571.81L463.72 502.24L382.92 531.65L404.09 589.82C412.81 586.67 420.44 580.46 425.23 571.81Z" fill="url(#paint7_linear_201_38)"/>
<path d="M376.64 589.55C385.76 593.04 395.46 592.92 404.08 589.81L382.91 531.64L302.11 561.05L376.64 589.55Z" fill="url(#paint8_linear_201_38)"/>
<path d="M568.04 428.73L552.81 350.7L509.82 425.17L563.43 456.12C568.09 448.09 569.94 438.43 568.04 428.73Z" fill="url(#paint9_linear_201_38)"/>
<path d="M542.23 473.55C551.45 470.36 558.81 464.03 563.42 456.11L509.81 425.16L466.82 499.63L542.23 473.55Z" fill="url(#paint10_linear_201_38)"/>
<path d="M585.47 227.32L523.64 177.34L538.57 262.02L599.53 251.27C597.96 242.13 593.16 233.54 585.47 227.32Z" fill="url(#paint11_linear_201_38)"/>
<path d="M594.51 278.25C599.53 269.88 601.1 260.3 599.53 251.27L538.57 262.02L553.5 346.7L594.51 278.25Z" fill="url(#paint12_linear_201_38)"/>
<path d="M469.37 61.83L389.88 63.28L455.75 118.55L495.54 71.13C488.45 65.15 479.26 61.65 469.37 61.83Z" fill="url(#paint13_linear_201_38)"/>
<path d="M509.03 95.04C507.49 85.4 502.54 77.06 495.54 71.15L455.75 118.57L521.62 173.84L509.03 95.04Z" fill="url(#paint14_linear_201_38)"/>
<path d="M300.08 514.08C416.06 514.08 510.08 420.06 510.08 304.08C510.08 188.1 416.06 94.08 300.08 94.08C184.1 94.08 90.08 188.1 90.08 304.08C90.08 420.06 184.1 514.08 300.08 514.08Z" fill="url(#paint15_radial_201_38)"/>
<path d="M300.08 75.32C173.74 75.32 71.32 177.73 71.32 304.07C71.32 430.41 173.74 532.83 300.08 532.83C426.42 532.83 528.84 430.41 528.84 304.07C528.84 177.73 426.42 75.32 300.08 75.32ZM300.08 514.05C184.11 514.05 90.1 420.04 90.1 304.07C90.1 188.1 184.11 94.09 300.08 94.09C416.05 94.09 510.06 188.1 510.06 304.07C510.06 420.04 416.05 514.05 300.08 514.05Z" fill="url(#paint16_linear_201_38)"/>
<path d="M300.08 46.13C157.62 46.13 42.14 161.61 42.14 304.07C42.14 446.53 157.62 562.01 300.08 562.01C442.54 562.01 558.02 446.53 558.02 304.07C558.02 161.61 442.54 46.13 300.08 46.13ZM300.08 532.72C173.8 532.72 71.43 430.35 71.43 304.07C71.43 177.79 173.8 75.43 300.08 75.43C426.36 75.43 528.73 177.8 528.73 304.08C528.73 430.36 426.36 532.72 300.08 532.72Z" fill="url(#paint17_linear_201_38)"/>
<path d="M242.18 409.31C238.68 409.31 235.43 408.19 232.56 406.19C232.19 405.94 231.94 405.69 231.69 405.44C231.44 405.32 231.31 405.07 231.19 404.94C230.69 404.56 230.44 404.19 230.07 403.82C229.82 403.57 229.69 403.32 229.45 403.07L229.33 402.95C229.08 402.7 228.95 402.45 228.83 402.2L228.58 401.82C228.08 401.07 227.71 400.32 227.33 399.57C227.21 399.2 227.08 398.82 226.95 398.45C226.83 398.07 226.7 397.58 226.58 397.2C226.45 396.7 226.33 396.08 226.2 395.45C226.2 395.2 226.08 394.83 226.08 394.58C226.08 394.08 225.96 393.58 225.96 393.08C225.96 392.21 226.08 391.33 226.21 390.33L235.83 334.37L195.23 294.77C194.48 294.02 193.73 293.15 193.11 292.27C192.36 291.15 191.86 290.27 191.49 289.27C191.37 288.9 191.12 288.4 190.99 287.77C190.61 286.27 190.37 284.77 190.37 283.15C190.37 282.65 190.37 282.28 190.37 281.78C190.37 281.03 190.49 280.28 190.74 279.53C190.74 279.41 190.86 279.16 190.86 279.03C190.99 278.65 190.99 278.28 191.11 277.91C191.11 277.79 191.23 277.53 191.36 277.16C191.48 276.78 191.61 276.41 191.86 276.04C192.23 275.29 192.61 274.54 193.23 273.67C193.48 273.17 193.85 272.8 194.23 272.42C194.23 272.42 194.23 272.3 194.35 272.3L196.35 269.05H198.1C198.35 268.92 198.47 268.8 198.72 268.67C198.97 268.55 199.47 268.3 199.84 268.05C200.34 267.8 200.96 267.55 201.71 267.3C201.96 267.18 202.33 267.05 202.71 267.05C203.21 266.93 203.71 266.8 204.33 266.67L260.54 258.55L285.27 207.96C288.02 202.34 293.64 198.84 299.88 198.84C304.38 198.84 308.75 200.71 311.87 203.96C312.37 204.58 312.87 205.08 313.24 205.71C313.74 206.46 314.24 207.21 314.61 207.96L339.72 258.67L395.8 266.79C402.05 267.66 407.17 272.04 409.04 278.03C409.17 278.41 409.29 278.65 409.29 279.03C409.29 279.15 409.29 279.15 409.41 279.28C409.53 279.66 409.66 280.03 409.66 280.53C409.66 280.65 409.66 280.65 409.66 280.78C409.78 281.28 409.78 281.65 409.78 282.15C409.91 284.52 409.53 287.02 408.53 289.27C408.15 290.27 407.66 291.14 407.03 292.02L406.9 292.14C406.28 293.01 405.53 293.89 404.78 294.64L364.18 334.24L373.8 390.07C374.8 396.19 372.43 402.31 367.3 406.06C366.05 406.93 364.55 407.81 363.05 408.31C362.92 408.31 362.8 408.44 362.55 408.44C360.93 408.94 359.3 409.19 357.68 409.19C355.06 409.19 352.43 408.57 350.06 407.32L299.85 380.96L249.64 407.32C247.42 408.69 244.8 409.31 242.18 409.31Z" fill="#DF771E"/>
<path d="M299.88 206.83V310.13L265.4 266.04L292.38 211.46C294.01 208.46 297.01 206.83 299.88 206.83Z" fill="#FFFAF6"/>
<path d="M401.43 280.66L300 310.14L334.47 266.05L394.68 274.79C398.06 275.41 400.43 277.78 401.43 280.66Z" fill="#FEE0AC"/>
<path d="M362.59 399.69L299.89 310.13L355.6 331.49L365.84 391.45C366.58 394.95 365.08 397.94 362.59 399.69Z" fill="#ECB76B"/>
<path d="M299.88 310.13V371.96L246.04 400.31C242.92 401.93 239.67 401.43 237.17 399.69L299.88 310.13Z" fill="#F1A341"/>
<path d="M334.36 266.04L299.88 310.13V206.83C302.13 206.83 304.38 207.7 306 209.45C306.25 209.7 306.5 210.07 306.75 210.45C307 210.83 307.25 211.2 307.37 211.57L334.36 266.04Z" fill="#FFE9BA"/>
<path d="M401.18 286.28C400.93 286.78 400.68 287.28 400.43 287.78C400.05 288.28 399.68 288.65 399.31 289.15L355.72 331.62L300.01 310.26L401.44 280.78C401.44 280.9 401.56 281.03 401.56 281.16C401.56 281.29 401.69 281.41 401.69 281.66C401.69 281.79 401.69 281.79 401.69 281.79C401.69 281.91 401.69 282.04 401.69 282.16C401.69 282.41 401.69 282.54 401.69 282.78C401.81 283.9 401.68 285.15 401.18 286.28Z" fill="#E49632"/>
<path d="M362.59 399.69C361.97 400.19 361.22 400.56 360.34 400.81C360.22 400.81 360.22 400.81 360.09 400.93C358.09 401.55 355.84 401.43 353.72 400.31L299.88 371.96V310.13L362.59 399.69Z" fill="#E29136"/>
<path d="M299.88 310.13L237.18 399.69C237.06 399.56 236.93 399.44 236.81 399.31C236.69 399.19 236.56 399.06 236.43 398.93C236.31 398.81 236.18 398.68 235.93 398.43C235.8 398.31 235.68 398.18 235.55 398.05C235.42 397.92 235.43 397.93 235.43 397.8C235.31 397.68 235.18 397.55 235.18 397.42C234.93 397.05 234.68 396.67 234.56 396.3C234.44 396.18 234.44 395.92 234.31 395.68C234.19 395.43 234.19 395.3 234.06 395.06C233.94 394.81 233.94 394.44 233.94 394.19C233.94 394.07 233.94 393.81 233.94 393.69C233.94 393.44 233.94 393.19 233.94 392.94C233.94 392.44 233.94 391.94 234.06 391.44L244.3 331.48L299.88 310.13Z" fill="#FED891"/>
<path d="M299.88 310.13L198.45 280.65C198.45 280.53 198.57 280.4 198.57 280.27C198.69 280.02 198.69 279.77 198.82 279.65C199.07 279.15 199.32 278.78 199.57 278.4C199.69 278.15 199.82 278.02 200.07 277.78C200.2 277.66 200.32 277.4 200.57 277.28C200.69 277.16 200.95 276.91 201.07 276.78C201.19 276.65 201.44 276.53 201.57 276.4C201.82 276.28 202.07 276.02 202.32 275.9C202.44 275.78 202.69 275.65 202.94 275.65C203.32 275.53 203.56 275.4 203.94 275.27C204.06 275.27 204.19 275.15 204.44 275.15C204.69 275.03 205.06 275.03 205.44 274.9L265.65 266.16L299.88 310.13Z" fill="#FFF3D9"/>
<path d="M299.88 310.13L244.3 331.61L200.71 289.14C200.21 288.76 199.96 288.27 199.59 287.77C199.34 287.27 198.97 286.77 198.84 286.27C198.72 286.02 198.59 285.77 198.59 285.52C198.34 284.77 198.21 283.9 198.21 283.15C198.21 282.9 198.21 282.65 198.21 282.4C198.21 282.03 198.21 281.78 198.34 281.4C198.34 281.28 198.46 281.15 198.46 280.9C198.46 280.78 198.58 280.65 198.58 280.53L299.88 310.13Z" fill="#ECB76B"/>
</g>
<defs>
<linearGradient id="paint0_linear_201_38" x1="304.294" y1="30.95" x2="383.258" y2="30.95" gradientUnits="userSpaceOnUse">
<stop stop-color="#FEE998"/>
<stop offset="1" stop-color="#FCC15B"/>
</linearGradient>
<linearGradient id="paint1_linear_201_38" x1="128.673" y1="91.3476" x2="207.48" y2="25.2158" gradientUnits="userSpaceOnUse">
<stop stop-color="#FEE998"/>
<stop offset="1" stop-color="#FCC15B"/>
</linearGradient>
<linearGradient id="paint2_linear_201_38" x1="77.9304" y1="177.163" x2="33.4598" y2="250.222" gradientUnits="userSpaceOnUse">
<stop stop-color="#FCC15B"/>
<stop offset="1" stop-color="#FEE998"/>
</linearGradient>
<linearGradient id="paint3_linear_201_38" x1="57.0248" y1="438.902" x2="134.319" y2="489.726" gradientUnits="userSpaceOnUse">
<stop stop-color="#FFC05F"/>
<stop offset="1" stop-color="#ED892B"/>
</linearGradient>
<linearGradient id="paint4_linear_201_38" x1="48.2415" y1="352.321" x2="62.0062" y2="439.144" gradientUnits="userSpaceOnUse">
<stop stop-color="#FCC15B"/>
<stop offset="1" stop-color="#FEE998"/>
</linearGradient>
<linearGradient id="paint5_linear_201_38" x1="210.535" y1="561.771" x2="286.77" y2="578.712" gradientUnits="userSpaceOnUse">
<stop stop-color="#FEAC3E"/>
<stop offset="1" stop-color="#F08223"/>
</linearGradient>
<linearGradient id="paint6_linear_201_38" x1="132.637" y1="501.567" x2="202.52" y2="558.743" gradientUnits="userSpaceOnUse">
<stop stop-color="#FFA135"/>
<stop offset="1" stop-color="#FEB431"/>
</linearGradient>
<linearGradient id="paint7_linear_201_38" x1="464.023" y1="501.742" x2="394.317" y2="561.743" gradientUnits="userSpaceOnUse">
<stop stop-color="#FFAA3D"/>
<stop offset="1" stop-color="#ED8B1C"/>
</linearGradient>
<linearGradient id="paint8_linear_201_38" x1="302.416" y1="566.619" x2="391.357" y2="561.678" gradientUnits="userSpaceOnUse">
<stop stop-color="#FF962D"/>
<stop offset="1" stop-color="#E56005"/>
</linearGradient>
<linearGradient id="paint9_linear_201_38" x1="556.078" y1="351.013" x2="538.196" y2="438.072" gradientUnits="userSpaceOnUse">
<stop stop-color="#FDBD41"/>
<stop offset="1" stop-color="#FEB334"/>
</linearGradient>
<linearGradient id="paint10_linear_201_38" x1="579.51" y1="366.339" x2="493.52" y2="515.273" gradientUnits="userSpaceOnUse">
<stop stop-color="#F6942F"/>
<stop offset="1" stop-color="#EA6F11"/>
</linearGradient>
<linearGradient id="paint11_linear_201_38" x1="519.324" y1="179.844" x2="571.088" y2="256.55" gradientUnits="userSpaceOnUse">
<stop stop-color="#FDBD41"/>
<stop offset="1" stop-color="#FEB334"/>
</linearGradient>
<linearGradient id="paint12_linear_201_38" x1="550.277" y1="346.483" x2="570.513" y2="257.072" gradientUnits="userSpaceOnUse">
<stop stop-color="#FD9D24"/>
<stop offset="1" stop-color="#FF9515"/>
</linearGradient>
<linearGradient id="paint13_linear_201_38" x1="474.648" y1="93.6742" x2="394.648" y2="55.086" gradientUnits="userSpaceOnUse">
<stop stop-color="#FCC15B"/>
<stop offset="1" stop-color="#FEE998"/>
</linearGradient>
<linearGradient id="paint14_linear_201_38" x1="475.033" y1="88.7743" x2="513.15" y2="173.48" gradientUnits="userSpaceOnUse">
<stop stop-color="#FF9515"/>
<stop offset="1" stop-color="#FFBE41"/>
</linearGradient>
<radialGradient id="paint15_radial_201_38" cx="0" cy="0" r="1" gradientUnits="userSpaceOnUse" gradientTransform="translate(300.081 304.076) scale(210)">
<stop offset="0.8428" stop-color="#FAAA31"/>
<stop offset="1" stop-color="#F57E16"/>
</radialGradient>
<linearGradient id="paint16_linear_201_38" x1="300.082" y1="75.3161" x2="300.082" y2="532.836" gradientUnits="userSpaceOnUse">
<stop offset="0.0226" stop-color="#FD9A18"/>
<stop offset="0.3764" stop-color="#FEC752"/>
<stop offset="1" stop-color="#FFA422"/>
</linearGradient>
<linearGradient id="paint17_linear_201_38" x1="300.082" y1="45.374" x2="300.082" y2="561.256" gradientUnits="userSpaceOnUse">
<stop stop-color="#FFDB69"/>
<stop offset="0.1799" stop-color="#FEE7B0"/>
<stop offset="0.24" stop-color="#FEE9BA"/>
<stop offset="0.2592" stop-color="#FDECD0"/>
<stop offset="0.2953" stop-color="#FEDA92"/>
<stop offset="0.3254" stop-color="#FFCD64"/>
<stop offset="0.3405" stop-color="#FFC853"/>
<stop offset="0.7613" stop-color="#FF9114"/>
<stop offset="1" stop-color="#F57E16"/>
</linearGradient>
<clipPath id="clip0_201_38">
<rect width="600.12" height="592.25" fill="white"/>
</clipPath>
</defs>
</svg>
